<?xml version="1.0" encoding="utf-8"?>
<!-- Generator: Adobe Illustrator 25.4.1, SVG Export Plug-In . SVG Version: 6.00 Build 0)  -->
<svg version="1.1" id="Layer_1" xmlns="http://www.w3.org/2000/svg" xmlns:xlink="http://www.w3.org/1999/xlink" x="0px" y="0px"
	 viewBox="0 0 100 100" style="enable-background:new 0 0 100 100;" xml:space="preserve">
<style type="text/css">
	.st0{fill:none;stroke:#FFFFFF;stroke-miterlimit:10;}
	.st1{stroke:#FFFFFF;stroke-miterlimit:10;}
</style>
<g>
	<g>
		<path class="st0" d="M52.4,48l10.2,17.7h4.1l-7.8-13.5c-0.1-0.2-0.1-0.4,0-0.6c0.1-0.2,0.3-0.3,0.6-0.3h3.1L53.2,35L52,37.1
			L58.2,48H52.4z"/>
		<rect x="51.7" y="68" class="st0" width="3.1" height="9.1"/>
		<polygon class="st1" points="54.7,77.1 51.7,77.1 51.7,68 51,68 51,77.7 55.4,77.7 55.4,68 54.7,68 		"/>
		<path class="st1" d="M53.2,35l9.3,16.2h-3.1c-0.2,0-0.4,0.1-0.6,0.3c-0.1,0.2-0.1,0.4,0,0.6l7.8,13.5h-4.1l0.4,0.7h4.8l-8.4-14.5
			h4.2L53.2,33.7l-1.6,2.8l0.4,0.6L53.2,35z"/>
		<path class="st1" d="M46.8,67.1c-0.5,0-0.9,0.4-0.9,0.9v14.9h-4.2V68c0-0.5-0.4-0.9-0.9-0.9H25.1l10.8-18.7c0.2-0.3,0.2-0.6,0-0.9
			c-0.2-0.3-0.5-0.4-0.8-0.4h-4.2l12.9-22.3l7.3,12.6l0.5-0.9L43.8,23L29.3,48h5.8L23.6,68h17.2v15.8h6V68H51v-0.9H46.8z"/>
		<rect x="51.7" y="67.1" class="st1" width="3.1" height="0.9"/>
		<path class="st1" d="M52.4,47.1c-0.3,0-0.6,0.2-0.8,0.4c-0.2,0.3-0.2,0.6,0,0.9l10,17.2h1L52.4,48h5.8L52,37.1L51.5,38l5.2,9H52.4
			z"/>
		<polygon class="st1" points="63,66.3 62,66.3 62.5,67.1 55.4,67.1 55.4,68 64,68 		"/>
		<rect x="54.7" y="67.1" class="st1" width="0.6" height="0.9"/>
		<polygon class="st1" points="51.5,38 52,37.1 51.6,36.5 51.1,37.4 		"/>
		<polygon class="st1" points="61.6,65.7 62,66.3 63,66.3 62.7,65.7 		"/>
		<rect x="51" y="67.1" class="st1" width="0.6" height="0.9"/>
	</g>
	<g>
		<path class="st1" d="M66.2,16.7c1.3,0,2.5,0.2,3.7,0.8c2.4,1,4.3,2.9,5.3,5.3s1,5.1,0,7.5c-1.4,3.3-4.4,5.6-7.9,6
			c1.7-1.2,2.9-2.8,3.7-4.6c1.1-2.6,1.1-5.6,0-8.2c-1.1-2.6-3.2-4.7-5.8-5.8c-0.5-0.2-1.1-0.4-1.7-0.5
			C64.4,16.9,65.3,16.7,66.2,16.7 M66.2,16.3c-1.6,0-3.1,0.4-4.5,1c1.1,0.1,2.3,0.3,3.3,0.8c5.2,2.2,7.7,8.2,5.6,13.5
			c-1,2.4-2.9,4.3-5.1,5.3c0.2,0,0.4,0,0.6,0c4,0,7.9-2.4,9.5-6.3c2.2-5.2-0.3-11.3-5.6-13.5C68.8,16.5,67.5,16.3,66.2,16.3
			L66.2,16.3z"/>
	</g>
	<g>
		<path class="st1" d="M53.6,24.6l0.4,1.1c0,0.1,0.1,0.2,0.2,0.2h1.2l-1,0.7c-0.1,0.1-0.1,0.2-0.1,0.3l0.4,1.1l-1-0.7
			c0,0-0.1,0-0.2,0s-0.1,0-0.2,0l-1,0.7l0.4-1.1c0-0.1,0-0.2-0.1-0.3l-1-0.7H53c0.1,0,0.2-0.1,0.2-0.2L53.6,24.6 M53.6,23.8L53,25.7
			h-2l1.6,1.2L52,28.8l1.6-1.2l1.6,1.2l-0.6-1.9l1.6-1.2h-2L53.6,23.8L53.6,23.8z M56.2,25.7L56.2,25.7L56.2,25.7z"/>
	</g>
	<g>
		<path class="st1" d="M65.6,26.9l0.3,0.9c0,0.1,0.1,0.1,0.2,0.1h1l-0.8,0.6c-0.1,0-0.1,0.1-0.1,0.2l0.3,0.9l-0.8-0.6
			c0,0-0.1,0-0.1,0s-0.1,0-0.1,0l-0.8,0.6l0.3-0.9c0-0.1,0-0.2-0.1-0.2l-0.8-0.6h1c0.1,0,0.2-0.1,0.2-0.1L65.6,26.9 M65.6,26.2
			l-0.5,1.5h-1.6l1.3,0.9l-0.5,1.5l1.3-0.9l1.3,0.9l-0.5-1.5l1.3-0.9h-1.6L65.6,26.2L65.6,26.2z M67.7,27.7L67.7,27.7L67.7,27.7z"/>
	</g>
	<g>
		<path class="st1" d="M62.6,21.3l0.2,0.5c0,0,0,0.1,0.1,0.1h0.5L63,22.1c0,0,0,0.1,0,0.1l0.2,0.5l-0.4-0.3c0,0,0,0-0.1,0s0,0-0.1,0
			l-0.4,0.3l0.2-0.5c0,0,0-0.1,0-0.1l-0.4-0.3h0.5c0,0,0.1,0,0.1-0.1L62.6,21.3 M62.6,21l-0.2,0.8h-0.8l0.7,0.5L62,22.9l0.7-0.5
			l0.7,0.5L63,22.2l0.7-0.5h-0.8L62.6,21L62.6,21z M63.7,21.7L63.7,21.7L63.7,21.7z"/>
	</g>
	<g>
		<path class="st1" d="M59.6,34.1l0.2,0.7c0,0.1,0.1,0.1,0.2,0.1h0.7l-0.6,0.4c0,0-0.1,0.1-0.1,0.2l0.2,0.7l-0.6-0.4
			c0,0-0.1,0-0.1,0s-0.1,0-0.1,0l-0.6,0.4l0.2-0.7c0-0.1,0-0.1-0.1-0.2l-0.6-0.4h0.7c0.1,0,0.1,0,0.2-0.1L59.6,34.1 M59.6,33.6
			l-0.4,1.2H58l1,0.7l-0.4,1.2l1-0.7l1,0.7l-0.4-1.2l1-0.7H60L59.6,33.6L59.6,33.6z M61.2,34.7L61.2,34.7L61.2,34.7z"/>
	</g>
</g>
</svg>
