<?xml version="1.0" encoding="utf-8"?>
<!-- Generator: Adobe Illustrator 25.4.1, SVG Export Plug-In . SVG Version: 6.00 Build 0)  -->
<svg version="1.1" id="Layer_1" xmlns="http://www.w3.org/2000/svg" xmlns:xlink="http://www.w3.org/1999/xlink" x="0px" y="0px"
	 viewBox="0 0 100 100" style="enable-background:new 0 0 100 100;" xml:space="preserve">
<style type="text/css">
	.st0{fill:#2D4C2D;}
	.st1{fill:#777777;}
	.st2{fill:#5D845E;}
	.st3{fill:#E2B700;}
	.st4{fill:#FFEC00;}
	.st5{fill:#FEFFCA;}
	.st6{fill:#FFC255;}
	.st7{fill:#FFF2CC;}
</style>
<g>
	<g>
		<path class="st0" d="M51.35,77.66V66.57c0-0.18-0.14-0.32-0.32-0.32h-11.9l8.08-14c0.06-0.1,0.06-0.22,0-0.32
			s-0.16-0.16-0.28-0.16h-3.62l9.9-17.14l9.9,17.14h-3.62c-0.12,0-0.22,0.06-0.28,0.16s-0.06,0.22,0,0.32l8.08,14H55.38
			c-0.18,0-0.32,0.14-0.32,0.32v11.08H51.35z"/>
		<path class="st1" d="M53.2,35.27l9.34,16.17h-3.07c-0.23,0-0.44,0.12-0.56,0.32c-0.12,0.2-0.12,0.44,0,0.64l7.81,13.52H55.38
			c-0.36,0-0.64,0.29-0.64,0.64v10.76h-3.06V66.57c0-0.36-0.29-0.64-0.64-0.64H39.68l7.81-13.52c0.12-0.2,0.12-0.44,0-0.64
			c-0.12-0.2-0.33-0.32-0.56-0.32h-3.07L53.2,35.27 M53.2,33.98L42.75,52.09h4.18l-8.36,14.49h12.46v11.41h4.35V66.57h12.46
			l-8.36-14.49h4.18L53.2,33.98L53.2,33.98z"/>
	</g>
	<g>
		<path class="st2" d="M41.22,83.54V68.23c0-0.25-0.2-0.44-0.44-0.44H24.34L35.5,48.45c0.08-0.14,0.08-0.31,0-0.44
			c-0.08-0.14-0.23-0.22-0.39-0.22h-5l13.66-23.67l13.66,23.67h-5c-0.16,0-0.31,0.08-0.38,0.22c-0.08,0.14-0.08,0.31,0,0.44
			l11.16,19.33H46.77c-0.25,0-0.44,0.2-0.44,0.44v15.31H41.22z"/>
		<path class="st1" d="M43.78,25.01l12.89,22.33h-4.23c-0.32,0-0.61,0.17-0.77,0.44c-0.16,0.28-0.16,0.61,0,0.89l10.78,18.67H46.78
			c-0.49,0-0.89,0.4-0.89,0.89v14.86h-4.22V68.23c0-0.49-0.4-0.89-0.89-0.89H25.11l10.78-18.67c0.16-0.28,0.16-0.61,0-0.89
			c-0.16-0.28-0.45-0.44-0.77-0.44h-4.23L43.78,25.01 M43.78,23.23l-14.43,25h5.77l-11.55,20h17.21v15.75h6V68.23h17.21l-11.55-20
			h5.77L43.78,23.23L43.78,23.23z"/>
	</g>
	<g>
		<path class="st3" d="M66.45,36.88c1.97-1.16,3.51-2.92,4.39-5.03c1.08-2.6,1.08-5.46,0-8.05s-3.1-4.62-5.69-5.69
			c-0.81-0.33-1.65-0.56-2.53-0.69c1.14-0.43,2.35-0.65,3.55-0.65c1.31,0,2.6,0.26,3.83,0.76c2.48,1.03,4.42,2.96,5.45,5.45
			s1.03,5.22,0,7.7C73.91,34.36,70.41,36.76,66.45,36.88z"/>
		<path class="st1" d="M66.16,17c1.28,0,2.54,0.25,3.74,0.75c2.43,1.01,4.32,2.9,5.32,5.32s1,5.1,0,7.53
			c-1.37,3.31-4.39,5.57-7.9,5.99c1.65-1.16,2.94-2.77,3.72-4.65c2.27-5.48-0.34-11.78-5.82-14.04c-0.54-0.23-1.11-0.41-1.69-0.54
			C64.4,17.12,65.28,17,66.16,17 M66.16,16.54c-1.55,0-3.08,0.36-4.46,1.02c1.12,0.06,2.26,0.3,3.35,0.76
			c5.25,2.18,7.74,8.2,5.57,13.45c-1.01,2.44-2.86,4.28-5.07,5.33c0.19,0.01,0.39,0.02,0.58,0.02c4.04,0,7.87-2.38,9.51-6.34
			c2.18-5.25-0.32-11.27-5.57-13.45C68.8,16.8,67.47,16.54,66.16,16.54L66.16,16.54z"/>
	</g>
	<g>
		<path class="st4" d="M53.68,27.79c-0.02-0.02-0.05-0.02-0.08-0.02s-0.05,0.01-0.08,0.02l-1.3,0.94l0.5-1.53
			c0.02-0.05,0-0.11-0.05-0.15l-1.3-0.94h1.61c0.06,0,0.11-0.04,0.12-0.09l0.5-1.53l0.5,1.53c0.02,0.05,0.07,0.09,0.12,0.09h1.61
			l-1.3,0.94c-0.05,0.03-0.07,0.09-0.05,0.15l0.5,1.53L53.68,27.79z"/>
		<path class="st1" d="M53.61,24.91l0.37,1.15c0.03,0.11,0.13,0.18,0.25,0.18h1.21l-0.98,0.71c-0.09,0.07-0.13,0.18-0.09,0.29
			l0.37,1.15l-0.98-0.71c-0.05-0.03-0.1-0.05-0.15-0.05s-0.11,0.02-0.15,0.05l-0.98,0.71l0.37-1.15c0.03-0.11,0-0.22-0.09-0.29
			l-0.98-0.71h1.21c0.11,0,0.21-0.07,0.25-0.18L53.61,24.91 M53.61,24.07l-0.62,1.91h-2.01l1.62,1.18l-0.62,1.91l1.62-1.18
			l1.62,1.18l-0.62-1.91l1.62-1.18h-2.01L53.61,24.07L53.61,24.07z M56.24,25.98L56.24,25.98L56.24,25.98z"/>
	</g>
	<g>
		<path class="st5" d="M64.9,28.96c0.01-0.04,0-0.09-0.04-0.12l-1.04-0.76h1.29c0.04,0,0.08-0.03,0.1-0.07l0.4-1.22l0.4,1.22
			c0.01,0.04,0.05,0.07,0.1,0.07h1.29l-1.04,0.76c-0.04,0.03-0.05,0.07-0.04,0.12l0.4,1.22l-1.04-0.76
			c-0.02-0.01-0.04-0.02-0.06-0.02s-0.04,0.01-0.06,0.02l-1.04,0.76L64.9,28.96z"/>
		<path class="st1" d="M65.61,27.13l0.3,0.92c0.03,0.09,0.11,0.14,0.2,0.14h0.97l-0.78,0.57c-0.07,0.05-0.1,0.15-0.08,0.23l0.3,0.92
			l-0.78-0.57c-0.04-0.03-0.08-0.04-0.12-0.04s-0.09,0.01-0.12,0.04l-0.78,0.57l0.3-0.92c0.03-0.09,0-0.18-0.08-0.23l-0.78-0.57
			h0.97c0.09,0,0.17-0.06,0.2-0.14L65.61,27.13 M65.61,26.45l-0.5,1.53h-1.61l1.3,0.94l-0.5,1.53l1.3-0.94l1.3,0.94l-0.5-1.53
			l1.3-0.94H66.1L65.61,26.45L65.61,26.45z M67.71,27.98L67.71,27.98L67.71,27.98z"/>
	</g>
	<g>
		<polygon class="st6" points="62.26,22.47 61.59,21.94 62.36,22.03 62.66,21.23 62.81,22 63.66,22.03 62.98,22.41 63.17,23.09 
			62.64,22.7 61.93,23.18 		"/>
		<path class="st1" d="M62.61,21.55l0.15,0.46c0.01,0.04,0.05,0.07,0.1,0.07h0.48l-0.39,0.28c-0.04,0.03-0.05,0.07-0.04,0.12
			l0.15,0.46l-0.39-0.28c-0.02-0.01-0.04-0.02-0.06-0.02s-0.04,0.01-0.06,0.02l-0.39,0.28l0.15-0.46c0.01-0.04,0-0.09-0.04-0.12
			l-0.39-0.28h0.48c0.05,0,0.09-0.03,0.1-0.07L62.61,21.55 M62.61,21.22l-0.25,0.76h-0.8l0.65,0.47l-0.25,0.76l0.65-0.47l0.65,0.47
			l-0.25-0.76l0.65-0.47h-0.8L62.61,21.22L62.61,21.22z M63.66,21.98L63.66,21.98L63.66,21.98z"/>
	</g>
	<g>
		<polygon class="st7" points="59.08,35.71 58.25,35.06 59.24,35.06 59.6,34.07 59.91,35.01 60.96,35.05 60.17,35.63 60.45,36.64 
			59.65,36.06 58.78,36.65 		"/>
		<path class="st1" d="M59.61,34.34l0.22,0.69c0.02,0.06,0.08,0.11,0.15,0.11h0.72l-0.59,0.43c-0.05,0.04-0.08,0.11-0.06,0.17
			l0.22,0.69L59.7,36c-0.03-0.02-0.06-0.03-0.09-0.03s-0.06,0.01-0.09,0.03l-0.59,0.43l0.22-0.69c0.02-0.06,0-0.13-0.06-0.17
			l-0.59-0.43h0.72c0.07,0,0.13-0.04,0.15-0.11L59.61,34.34 M59.61,33.84l-0.37,1.15h-1.2l0.97,0.71l-0.37,1.15l0.97-0.71l0.97,0.71
			l-0.37-1.15l0.97-0.71h-1.2L59.61,33.84L59.61,33.84z M61.19,34.98L61.19,34.98L61.19,34.98z"/>
	</g>
</g>
</svg>
